<svg width="62" height="44" viewBox="0 0 62 44" fill="none" xmlns="http://www.w3.org/2000/svg">
<rect width="62" height="44" fill="#444444"/>
<g clip-path="url(#clip0)">
<path d="M27.1328 25.2228H38.7775C39.0659 25.2228 39.3188 25.0322 39.3969 24.7552L41.9752 15.7316C42.0306 15.5371 41.9926 15.3281 41.8706 15.1665C41.7484 15.0053 41.5584 14.9102 41.3556 14.9102H25.6449L25.1841 12.8369C25.1187 12.5417 24.8568 12.332 24.5547 12.332H20.6445C20.2884 12.332 20 12.6204 20 12.9766C20 13.3329 20.2884 13.6211 20.6445 13.6211H24.0374L26.3649 24.0947C25.6801 24.3925 25.1992 25.0741 25.1992 25.8674C25.1992 26.9335 26.0667 27.801 27.1328 27.801H38.7775C39.1339 27.801 39.422 27.5128 39.422 27.1564C39.422 26.8003 39.1339 26.5119 38.7775 26.5119H27.1328C26.7778 26.5119 26.4883 26.223 26.4883 25.8674C26.4883 25.5117 26.7778 25.2228 27.1328 25.2228Z" fill="#FFFCF8"/>
<path d="M26.4883 29.7345C26.4883 30.8009 27.3557 31.6681 28.422 31.6681C29.4882 31.6681 30.3556 30.8009 30.3556 29.7345C30.3556 28.6684 29.4882 27.801 28.422 27.801C27.3557 27.801 26.4883 28.6684 26.4883 29.7345Z" fill="#FFFCF8"/>
<path d="M35.5548 29.7345C35.5548 30.8009 36.4223 31.6681 37.4884 31.6681C38.5548 31.6681 39.422 30.8009 39.422 29.7345C39.422 28.6684 38.5548 27.801 37.4884 27.801C36.4223 27.801 35.5548 28.6684 35.5548 29.7345Z" fill="#FFFCF8"/>
</g>
<defs>
<clipPath id="clip0">
<rect width="22" height="22" fill="white" transform="translate(20 11)"/>
</clipPath>
</defs>
</svg>
