<svg width="24" height="26" viewBox="0 0 24 26" fill="none" xmlns="http://www.w3.org/2000/svg">
<path d="M23.802 25.3524L21.8593 7.2528C21.8269 6.96139 21.5679 6.73474 21.2765 6.73474H17.6824V5.63387C17.6824 2.52553 15.1569 0 12.0486 0C8.94021 0 6.41468 2.52553 6.41468 5.63387V6.73474H2.72353C2.43212 6.73474 2.17309 6.96139 2.14071 7.2528L0.197998 25.3524C0.165619 25.5143 0.230376 25.6762 0.327512 25.8057C0.424648 25.9352 0.586541 26 0.748434 26H23.2515C23.4134 26 23.5753 25.9352 23.6725 25.8057C23.7696 25.6762 23.8344 25.5143 23.802 25.3524ZM17.0996 10.005C17.391 10.005 17.6177 10.2316 17.6177 10.523C17.6177 10.8144 17.391 11.0411 17.0996 11.0411C16.8082 11.0411 16.5816 10.8144 16.5816 10.523C16.5816 10.2316 16.8082 10.005 17.0996 10.005ZM7.58031 5.63387C7.58031 3.1731 9.58778 1.16563 12.0486 1.16563C14.5093 1.16563 16.5168 3.1731 16.5168 5.63387V6.73474H7.58031V5.63387ZM6.9975 10.005C7.28891 10.005 7.51556 10.2316 7.51556 10.523C7.51556 10.8144 7.28891 11.0411 6.9975 11.0411C6.70609 11.0411 6.47944 10.8144 6.47944 10.523C6.47944 10.2316 6.70609 10.005 6.9975 10.005ZM1.42838 24.802L3.24158 7.86799H6.41468V8.93649C5.76711 9.16314 5.31381 9.77833 5.31381 10.4907C5.31381 11.3973 6.05852 12.142 6.96512 12.142C7.87172 12.142 8.61643 11.3973 8.61643 10.4907C8.61643 9.77833 8.16313 9.16314 7.51556 8.93649V7.86799H16.452V8.93649C15.8045 9.16314 15.3512 9.77833 15.3512 10.4907C15.3512 11.3973 16.0959 12.142 17.0025 12.142C17.9091 12.142 18.6538 11.3973 18.6538 10.4907C18.6538 9.77833 18.2005 9.16314 17.5529 8.93649V7.86799H20.8555L22.6687 24.802H1.42838Z" fill="#444444"/>
</svg>
