<svg width="104" height="60" viewBox="0 0 104 60" fill="none" xmlns="http://www.w3.org/2000/svg">
<path d="M9.36803 32.0789H11.3515V35.8688H4.29693V32.0789H6.27136V29.8584H0V32.0789H1.99543V43.2413H0V45.4513H6.27136V43.2413H4.29543V38.0622H11.35V43.2413H9.36803V45.4513H15.6544V43.2413H13.653V32.0789H15.6559V29.8584H9.36953L9.36803 32.0789ZM85.0174 43.2413H78.8361V38.0397H84.1532V35.8387H78.8345V32.0789H85.0639V34.2124H87.2544V29.8584H74.4416V32.0789H76.5315V43.2413H74.4416V45.4513H87.2844V40.2557H85.0189L85.0174 43.2413ZM31.4318 40.2557H29.1663V43.2413H22.985V38.0397H28.3036V35.8387H22.985V32.0789H29.2158V34.2124H31.4063V29.8584H18.5935V32.0789H20.6835V43.2413H18.592V45.4513H31.4318V40.2557ZM79.4317 29.0888H83.9251L82.7759 27.719H78.1699L79.4317 29.0888ZM99.7806 36.5349C98.2127 36.0878 97.1055 36.1898 95.5107 35.6572C94.0704 35.1741 93.7853 34.2889 93.7853 33.7023C93.7853 33.1127 94.4214 31.5838 96.6839 31.5838C98.9494 31.5838 100.432 33.0811 100.516 34.3999L100.525 34.3939V34.3999H102.7V29.8539H100.595V30.8442L100.661 31.1532C100.646 31.1082 100.586 30.9837 100.364 30.7631C100.361 30.7586 100.361 30.7556 100.361 30.7511C99.6936 30.151 98.4213 29.4969 96.5084 29.4969C94.1904 29.4969 91.4598 30.9342 91.4598 33.7128C91.4598 36.4209 93.4162 37.3661 95.0756 37.8042C96.7379 38.2453 97.5856 38.2453 98.9719 38.6203C100.355 38.9954 101.252 39.8296 101.252 41.0659C101.252 42.2361 100.532 43.771 97.6036 43.771C94.6705 43.771 93.5122 42.1896 93.1732 39.9271L93.1491 39.9376H91.0787V45.4558H93.2422V44.4236L93.2362 44.4161L93.1581 44.143C93.1581 44.143 93.2362 44.3276 93.4822 44.4986L93.5032 44.5286C94.5985 45.3688 96.0358 45.9269 97.8782 45.9269C99.9336 45.9269 103.531 44.8722 103.531 41.1364C103.525 38.4628 102.106 37.2025 99.7806 36.5334V36.5349ZM65.1591 43.2413V45.4513H71.5205V43.2413H69.435V32.0789H71.5205V29.8584H65.8342L62.0684 38.9714L61.9904 39.4185L61.9154 38.9639L58.1496 29.8569H52.4693V32.0774H54.5503V43.2398H52.4664V45.4498H58.8232V43.2413H56.8353V32.9761L56.8503 32.298L57.0348 32.8381L61.3708 43.2128H62.604L66.955 32.8351L67.114 32.289L67.138 32.9041V43.2413H65.1591ZM21.7067 23.293V23.8031H23.8522C23.6399 23.6432 23.4356 23.473 23.24 23.293H21.7067ZM79.4932 23.302H78.377C78.0664 23.362 77.8368 23.6246 77.8113 23.8031H79.4917V23.3005L79.4932 23.302ZM21.7067 25.2915H79.4842V24.2112H42.3242C41.3744 24.6643 40.1697 24.6433 39.2305 24.2112H27.948C26.8828 24.6793 25.6556 24.6763 24.5873 24.2157L21.7067 24.2082V25.2885V25.2915ZM37.9762 23.293H29.2503C29.2203 23.353 28.8212 23.6981 28.6592 23.8031H38.5313C38.3267 23.6558 38.1403 23.4845 37.9762 23.293Z" fill="black"/>
<path d="M22.6969 19.2842C22.59 19.6258 22.5329 19.981 22.5274 20.3389C22.5547 21.3094 22.9594 22.231 23.6555 22.9079C24.3515 23.5847 25.2841 23.9635 26.255 23.9637C27.2258 23.9639 28.1585 23.5855 28.8549 22.9089C29.5512 22.2323 29.9563 21.3109 29.984 20.3404C29.984 19.8993 29.894 19.4807 29.7529 19.0876C30.182 19.0126 30.6021 18.9226 31.0162 18.8071C31.2113 18.7546 31.2038 18.6661 31.0507 18.6195C30.4986 18.45 29.9105 18.3195 29.3103 18.2085C28.9678 17.716 28.5113 17.3136 27.9797 17.0356C27.448 16.7577 26.8571 16.6124 26.2572 16.6121C25.7771 16.6121 25.324 16.7096 24.9069 16.8747C24.9009 16.8717 24.8949 16.8627 24.8919 16.8597C24.807 16.7065 24.7587 16.5358 24.7509 16.3608C24.7431 16.1859 24.7759 16.0115 24.8469 15.8514C25.2265 15.2333 26.0681 14.9918 26.7598 14.9333C26.9923 14.9212 27.5505 14.9483 27.6105 15.0143C27.7455 15.1223 27.9781 15.1613 28.2256 15.0743C28.4627 15.1643 28.5227 15.2348 28.7927 15.3188C31.1692 16.129 33.8008 16.5566 36.4594 16.069C36.875 16.4621 37.1045 17.1522 37.3956 17.6293C37.4736 17.7494 37.5681 17.5393 38.8779 17.4943C39.34 17.4763 39.9071 17.4793 40.4007 17.4913C39.3805 17.6083 38.5028 18.1815 37.9822 19.0096C37.163 19.2707 36.5314 19.5197 36.2944 19.6638C36.0033 19.8393 35.9493 19.9368 36.2944 20.0269C36.7114 20.1364 37.1165 20.2069 37.5201 20.2564C37.4931 20.4214 37.4691 20.591 37.4691 20.7635C37.4691 21.6411 37.8177 22.4828 38.4383 23.1033C39.0588 23.7239 39.9005 24.0725 40.7781 24.0725C41.6557 24.0725 42.4973 23.7239 43.1179 23.1033C43.7384 22.4828 44.087 21.6411 44.087 20.7635C44.087 20.1934 43.9295 19.6638 43.676 19.1957C44.093 19.0456 44.5311 18.8806 44.9962 18.7006C45.3563 18.8311 45.6009 19.0456 45.8589 19.3457C46.069 19.5828 46.5446 19.4897 46.8266 19.4207C47.2842 19.3007 47.3548 18.9361 47.3518 18.5205C47.3518 18.3315 47.3608 18.1454 47.4508 17.9954C47.9864 16.7757 50.1274 16.6151 51.2256 16.3451C51.2256 16.3451 50.651 17.0352 50.2444 17.1882C50.1619 18.9691 49.4792 20.519 49.3967 22.2173C49.9143 22.2383 49.8918 22.8175 50.0163 23.1475C49.8723 23.4596 49.6232 23.1475 49.3967 23.2526C48.6105 22.8175 49.5827 22.1153 48.9406 21.5767C49.2707 20.1514 49.8108 18.7636 49.7658 17.2528C49.5602 17.2738 49.4807 17.5018 49.3952 17.6668C49.2497 19.0967 48.8371 20.4004 48.465 21.7237C48.63 21.8062 48.9196 21.8888 48.9001 22.1378C48.402 22.4484 48.9196 22.948 48.7125 23.3021H43.6039L43.0368 23.8122H50.8715L50.9465 23.5241C49.7913 22.3238 50.2264 20.5235 50.762 19.1582L52.1063 17.3368C53.224 16.9017 53.9067 15.5364 55.0859 15.1013C55.0859 15.6819 54.3613 15.931 53.9682 16.261C53.5571 17.2332 52.2518 17.3368 52.0658 18.414C52.5609 18.9931 53.3035 19.3652 53.9262 19.9038C54.5683 20.2984 54.3373 21.1251 54.8564 21.5392C54.9404 21.6637 54.8564 21.8497 54.7093 21.9533C54.1647 22.0838 54.1812 22.4514 54.5098 22.7574C54.7198 22.9525 54.9599 23.2075 54.9329 23.3036H51.3171C51.3171 23.4686 51.4641 23.5316 51.6232 23.8137H71.5925C71.7425 23.5316 71.417 23.1985 71.2774 22.921C69.8671 22.3884 69.8746 21.0546 69.7921 19.5843C69.8071 19.5242 69.7111 19.3847 69.7261 19.0816C69.516 18.8836 68.5889 16.5236 69.0104 14.6767L69.318 14.0691C69.6076 13.6535 69.3 13.4314 69.5055 12.9978L73.714 12.1847C73.789 12.1456 73.7695 11.9746 73.69 11.8966L72.4117 12.1336C71.396 11.7061 69.9061 10.7608 68.9249 9.47807C69.2295 7.39862 69.078 5.71226 68.8724 4.58701C69.4875 4.0769 69.9886 3.5938 69.9886 3.5938C70.4132 3.84885 70.5048 3.72883 70.5633 3.5908C70.4958 3.51278 69.8656 3.24572 69.9692 2.97266C70.3667 3.07769 70.4552 2.95466 70.5168 2.73261L70.2377 2.63359H70.2287L70.2737 2.48356C70.3547 2.31852 70.7298 2.47456 70.8738 2.43255C71.1244 2.27951 70.8438 2.04996 70.9279 1.84292C70.3427 1.34781 69.2865 1.33281 68.6474 0.872209C68.4493 0.503129 68.3683 0.347095 68.1613 0.197063C67.9482 0.0470301 67.021 -0.0384884 66.8485 0.0170236C66.6789 0.0770366 66.3534 0.381602 66.3534 0.381602C65.6887 0.521133 65.2881 0.306586 64.8305 0.0290262C64.8305 0.0290262 64.9281 0.55414 65.4517 0.776188C64.9896 0.965229 64.7855 1.35531 64.7105 1.84442C64.0744 1.97345 64.0504 2.60658 64.1329 2.89465C63.6123 3.20521 63.6633 3.6178 63.8478 4.03489C63.3827 4.34696 63.4532 4.79706 63.5853 5.14063C63.1952 5.38068 63.5853 6.04683 63.6453 6.43691C64.766 6.20586 66.1658 8.6799 68.1763 8.98446C68.5543 7.21858 68.0802 6.35289 67.6451 5.48121C67.9722 5.29066 68.3278 5.02811 68.6729 4.75205C68.8739 5.86979 69.0179 7.48864 68.7929 9.33854C68.7779 9.32354 68.7629 9.31153 68.7539 9.29653C68.6279 9.29653 68.5018 9.21251 68.3998 9.172C68.4208 9.23202 68.6519 9.5996 68.6054 9.66711C68.6054 9.66711 67.9542 10.0977 66.6624 9.55459C66.3174 10.3618 61.8824 12.3452 61.8824 12.3452C62.0474 13.5695 62.6296 14.3826 63.2297 15.0458C64.1824 15.7509 65.1996 16.114 66.4014 16.3631C66.6534 17.0142 67.4666 19.1807 67.5416 19.5287C67.6226 19.8768 67.8162 19.8768 67.8162 19.8768C67.9317 20.0329 68.3113 20.723 68.3533 21.0546L68.4478 22.2248C68.4883 22.4919 68.8379 22.2908 68.9039 22.5189L68.7419 23.3051L55.4565 23.3081C55.6425 22.3779 55.1684 21.5647 55.4145 20.7365C54.8804 19.8063 53.4311 19.1642 53.6771 17.9429C54.3823 16.9707 56.5727 16.0225 56.0776 14.8477C58.0686 13.838 59.1188 15.5229 61.0047 15.3984C61.6618 15.3623 62.394 15.2903 62.9956 15.1133C62.2515 14.4681 61.5403 13.5199 61.1652 12.6723C57.2134 14.2626 53.3696 15.5724 49.0846 16.4411L48.7546 16.3361C48.429 16.3856 43.709 17.4463 42.4577 17.9339C42.1292 17.7363 41.7687 17.5977 41.3925 17.5243H41.502C41.9026 17.5243 42.5147 17.3113 42.9483 17.1597C44.7817 16.4906 45.4568 13.88 46.279 12.2207C46.9992 14.8012 48.6705 15.0113 49.6397 14.6902L49.7298 15.5004C49.7298 15.5004 50.5759 15.4704 51.2121 15.2153C51.1476 15.0623 51.0621 14.6527 51.002 14.1141C51.3876 13.9145 51.5962 13.769 51.7717 13.667C51.8242 14.2791 51.8617 14.8567 51.6787 15.1673L53.8602 14.5852C54.2802 12.6993 55.4205 10.0782 57.4354 8.16379C54.7304 7.08805 52.7034 8.31682 52.1888 8.80893C49.6427 9.6221 49.5407 13.1359 49.6172 14.3451C49.1761 14.4321 47.3247 15.0743 46.4486 11.8696C46.9587 10.6393 47.9264 9.27103 49.0141 8.2043C49.1086 8.12478 48.9991 7.99875 48.7816 8.12628C46.5956 9.6266 45.7959 12.2672 44.6212 14.4967C43.7 15.8815 42.4562 16.6316 40.5913 16.5521C38.2628 16.5161 37.136 14.0871 36.0693 12.5102C34.434 8.92895 30.203 10.2147 27.0584 9.44956C26.8828 9.35954 26.5332 8.32432 26.0321 8.36333C25.6766 8.39034 26.0111 8.75641 25.8071 8.87944C25.4125 8.71441 25.0809 8.42484 24.5858 8.50736C24.2753 8.57037 24.1912 8.90045 24.2137 9.19151C24.4613 10.3288 25.6811 10.8269 26.5918 11.241C26.9413 11.7631 26.8108 13.5665 26.5197 14.1861C26.1447 14.8762 24.6698 14.6302 24.3743 16.2115C24.3173 16.5326 24.3893 16.8117 24.5213 17.0742C23.9486 17.3754 23.4637 17.82 23.114 18.3645C22.4884 18.5145 21.8777 18.6826 21.3076 18.8866C21.1576 18.9406 21.1576 19.0276 21.3526 19.0726C21.7922 19.1627 22.2438 19.2377 22.6999 19.2947L22.6969 19.2842ZM69.288 10.4293C69.8281 11.0189 71.1184 11.9146 71.9436 12.2072L69.5536 12.6498C69.8236 11.637 68.9024 11.2485 69.2865 10.4293H69.288ZM69.5461 2.233C69.6361 2.19549 69.8881 2.29302 69.9917 2.32002C70.0547 2.33503 70.0307 2.47005 69.9991 2.59008C69.8431 2.62309 69.6001 2.53757 69.5671 2.45505C69.522 2.36503 69.459 2.27201 69.5476 2.233H69.5461ZM69.5656 2.84814C69.5956 3.02367 69.6676 3.22322 69.7711 3.37325C69.7681 3.45427 69.3255 3.86386 68.8154 4.29595C68.6894 3.67031 68.5603 3.23972 68.5303 3.06868C68.7329 2.92465 69.2805 2.76862 69.5656 2.84814ZM67.2776 0.653161C67.3676 0.623155 67.5506 0.683168 67.6001 0.719176C67.6496 0.756684 67.6091 0.908216 67.6061 0.959227C67.6061 1.01024 67.3781 1.11826 67.3781 1.11826C67.3781 1.11826 67.162 0.953226 67.165 0.902215L67.1545 0.897714C67.1899 0.813476 67.231 0.731766 67.2776 0.653161ZM67.5581 5.27866C67.2761 4.70854 67.048 4.10541 67.108 3.22322C67.3811 3.21872 67.7772 3.39725 68.3008 3.1602C68.3008 3.1602 68.4628 3.64931 68.6234 4.45048C68.2333 4.77605 67.8282 5.09262 67.5581 5.27866ZM63.9799 15.1958C63.1247 14.7667 63.6573 15.1268 63.9048 14.9408C65.2596 15.5649 65.9423 15.4209 66.9565 15.2978C67.102 15.4839 67.3016 15.6579 67.3016 15.9055C66.0608 16.258 65.0961 15.8004 63.9784 15.1973L63.9799 15.1958ZM68.8604 21.8723C68.7809 21.2151 68.7434 20.75 68.4403 20.4364C68.2003 19.7823 67.5041 17.9639 67.009 16.3256C67.3091 16.0285 67.5416 16.183 67.7412 16.9977C67.9317 17.6548 68.1613 18.198 68.3353 18.7471C68.5663 19.2992 68.7404 20.0344 68.9174 20.4214C68.9174 20.4214 69.0735 20.4484 69.1605 20.657C69.5956 21.8723 69.7096 22.0673 69.6361 22.6464C69.7411 23.101 70.3802 22.7304 70.3217 23.2916H68.9654L69.5626 23.2871C69.1515 22.852 69.4425 22.2038 68.8604 21.8723ZM42.4067 22.96C42.0316 23.2405 41.5815 23.4191 41.0909 23.4761C41.0429 23.4611 41.0009 23.3636 40.9979 23.3036L40.9199 21.6127C40.9169 21.5947 40.9469 21.5752 40.9649 21.5677C41.0069 21.5527 41.1224 21.5077 41.1689 21.4807C41.1869 21.4702 41.2334 21.4657 41.2484 21.4807L42.3587 22.7679C42.3977 22.816 42.4337 22.921 42.4037 22.963L42.4067 22.96ZM40.6903 23.5001C40.2402 23.4851 39.8201 23.3576 39.4495 23.152C39.4195 23.11 39.43 22.999 39.4645 22.9495L40.3917 21.5362C40.4007 21.5212 40.4368 21.5212 40.4578 21.5272C40.4968 21.5392 40.5883 21.5647 40.6408 21.5722C40.6618 21.5722 40.7008 21.6022 40.7008 21.6217L40.7833 23.3171C40.7863 23.3771 40.7383 23.4821 40.6888 23.4971L40.6903 23.5001ZM38.3498 19.9788C38.2898 19.9608 38.1998 19.8798 38.2028 19.8288C38.2883 19.5948 38.3978 19.3742 38.5403 19.1747C38.7654 19.1102 38.9979 19.0486 39.2305 18.9886L39.9807 19.9338L39.9461 19.9383C39.46 19.9983 39.0054 20.0284 38.5749 20.0344L38.3498 19.9743V19.9788ZM40.4608 18.0434C40.5058 18.0614 40.5508 18.1574 40.5508 18.216L40.5583 18.348C40.1082 18.435 39.6671 18.5325 39.244 18.6406C39.217 18.585 39.2035 18.5205 39.226 18.4905C39.5861 18.246 40.0062 18.0959 40.4563 18.0449L40.4608 18.0434ZM40.2237 19.8888L39.4615 18.9346C39.8306 18.8446 40.2027 18.7621 40.5748 18.6886L40.6258 19.8063C40.4758 19.8423 40.3512 19.8663 40.2237 19.8888ZM40.1517 20.1889C40.1487 20.1994 40.1517 20.2099 40.1457 20.2189C40.1097 20.2702 40.0771 20.3238 40.0482 20.3794C40.0392 20.3989 40.0032 20.4274 39.9807 20.4244L39.433 20.2744C39.6671 20.2504 39.9056 20.2294 40.1532 20.1874L40.1517 20.1889ZM41.1614 19.9848C41.1524 19.9998 41.1164 19.9998 41.0954 19.9923H41.0879L41.1674 19.9743L41.1629 19.9833L41.1614 19.9848ZM40.8418 19.7523L40.7893 18.6466C41.2484 18.5595 41.7 18.4875 42.1306 18.4365C42.1255 18.4825 42.1123 18.5272 42.0916 18.5685L41.412 19.6008C41.2109 19.6608 41.0249 19.7058 40.8418 19.7508V19.7523ZM42.2717 18.6871C42.3017 18.6376 42.3977 18.582 42.4487 18.5925C42.6437 18.7456 42.8238 18.9226 42.9738 19.1222C42.5687 19.2572 42.1486 19.3862 41.7315 19.5122L42.2717 18.6871ZM40.7713 18.3075L40.7683 18.2025C40.7653 18.1394 40.8133 18.0284 40.8613 18.0179C41.1464 18.0254 41.4165 18.0809 41.6715 18.1679C41.3715 18.207 41.0744 18.252 40.7713 18.306V18.3075ZM40.7338 18.0149C40.7488 18.0149 40.7608 18.0104 40.7743 18.0104L40.8103 18.0134H40.7323L40.7338 18.0149ZM36.806 19.8813C36.6589 19.8363 36.6934 19.7913 36.782 19.7538C37.0775 19.6368 37.4091 19.5212 37.7572 19.4087C37.6717 19.6008 37.6071 19.8018 37.5561 20.0088C37.3028 19.9896 37.0517 19.9474 36.806 19.8828V19.8813ZM38.0737 20.3089C38.2958 20.3209 38.5238 20.3179 38.7534 20.3134L39.9176 20.633C39.9326 20.6375 39.9446 20.672 39.9446 20.693C39.9446 20.738 39.9522 20.858 39.9657 20.9105C39.9657 20.9315 39.9506 20.9481 39.9326 20.9556L38.3798 21.6412C38.3228 21.6637 38.2103 21.6622 38.1758 21.6232C38.079 21.3462 38.0273 21.0554 38.0227 20.762C38.0227 20.606 38.0437 20.4574 38.0677 20.3119L38.0737 20.3089ZM38.2463 21.8347L38.2418 21.8242C38.2418 21.8287 38.2448 21.8317 38.2463 21.8347ZM38.3303 21.9908C38.3303 21.9398 38.4128 21.8617 38.4653 21.8377L40.0257 21.1866C40.0407 21.1776 40.0707 21.2016 40.0827 21.2166C40.1097 21.2496 40.1502 21.2991 40.1877 21.3366C40.2057 21.3516 40.2207 21.3966 40.2117 21.4117L39.2815 22.831C39.2485 22.882 39.1465 22.936 39.0985 22.921C38.7771 22.672 38.5156 22.3541 38.3333 21.9908H38.3303ZM39.256 23.0455C39.241 23.035 39.2305 23.026 39.217 23.0185L39.2575 23.044L39.256 23.0455ZM40.7713 23.5046H40.7698H40.7713ZM42.7218 22.6989C42.6767 22.7259 42.5642 22.6689 42.5222 22.6239L41.4165 21.3381C41.4015 21.3261 41.4135 21.2931 41.4255 21.2736C41.4551 21.2295 41.4817 21.1834 41.505 21.1356C41.5155 21.1161 41.55 21.0876 41.5725 21.0906L43.2079 21.5437C43.2589 21.5587 43.3429 21.6142 43.3609 21.6637C43.2214 22.0538 43.0083 22.4109 42.7218 22.6989ZM43.4689 21.2886C43.4419 21.3336 43.3189 21.3486 43.2589 21.3336L41.631 20.8835C41.6115 20.879 41.601 20.8445 41.601 20.8235C41.6012 20.7608 41.5972 20.6982 41.589 20.636C41.5845 20.615 41.5965 20.57 41.6145 20.561L43.1959 19.9608C43.2514 19.9398 43.3609 19.9503 43.3984 19.9878C43.4689 20.2339 43.5184 20.4875 43.5184 20.7575C43.5184 20.9375 43.4989 21.1176 43.4659 21.2901L43.4689 21.2886ZM43.2589 19.6008C43.2589 19.6533 43.1763 19.7358 43.1208 19.7583L43.2259 19.7223L41.541 20.3554C41.523 20.3629 41.496 20.3404 41.484 20.3254C41.4468 20.2747 41.4067 20.2261 41.364 20.1799C41.3444 20.1649 41.3309 20.1229 41.3384 20.1049L41.484 19.8843C41.9971 19.7493 42.5492 19.5753 43.1343 19.3742C43.1793 19.4492 43.2244 19.5242 43.2604 19.6023L43.2589 19.6008ZM47.6548 17.1852C46.9227 17.7134 47.2677 18.336 46.8146 18.4605C46.6496 18.4365 45.7284 18.6045 45.5844 18.6706C45.2738 18.381 44.9572 18.1364 44.4801 18.0104C45.3878 17.6383 46.8266 17.2693 47.6548 17.1852ZM44.6767 18.498C44.5191 18.573 44.099 18.7351 43.5334 18.9331C43.3926 18.7215 43.2274 18.5271 43.0413 18.354C43.7495 18.3165 44.3271 18.354 44.6767 18.498ZM52.5804 9.22902C51.4731 10.3423 51.6157 12.0046 51.7447 13.3129C51.4896 13.4989 51.1746 13.655 50.9705 13.769C50.8505 12.1637 51.023 9.76913 52.5819 9.22902H52.5804ZM24.8694 9.79314C24.6833 9.54408 24.4103 9.163 24.6218 8.90345C24.7779 8.7114 25.0959 8.86144 25.282 8.94546C25.4395 9.02797 26.6803 9.69562 27.0178 9.78864C29.5234 10.4128 32.6891 9.49307 34.6755 11.2935C34.773 11.3835 34.8435 11.469 34.8225 11.5935C31.9074 9.6071 27.519 12.5447 24.8709 9.79314H24.8694ZM27.2279 13.0008C27.4349 13.1254 27.5175 13.4554 27.7455 13.6415C28.1176 14.2626 28.8212 14.4696 29.1933 15.0068C29.0676 15.0166 28.9412 15.0075 28.8182 14.9798C28.5752 14.9318 28.4792 14.8597 28.2751 14.7697C28.1671 14.5942 27.8955 14.5357 27.6825 14.6497C27.513 14.6797 27.0434 14.6572 26.7313 14.5747C26.7913 14.0766 27.2714 13.5995 27.2264 12.9993L27.2279 13.0008ZM24.3113 18.357L25.0734 19.2047C24.5213 19.2002 23.9887 19.1747 23.4831 19.1402C23.4441 19.0861 23.4231 19.0351 23.4336 19.0051C23.5311 18.8011 23.6496 18.612 23.7862 18.435C23.9557 18.405 24.1342 18.3825 24.3113 18.36V18.357ZM28.8302 18.567C28.9233 18.7021 28.9983 18.8461 29.0703 18.9946C28.6952 19.0501 28.2961 19.0921 27.876 19.1252L28.4717 18.615C28.6217 18.495 28.7912 18.5205 28.8287 18.567H28.8302ZM28.3051 18.435L27.4589 19.1552C27.2429 19.1702 27.0239 19.1762 26.8033 19.1852L27.1484 18.204C27.5775 18.219 27.9946 18.249 28.3831 18.288C28.3651 18.3405 28.3501 18.393 28.3081 18.435H28.3051ZM28.0981 22.8535C27.798 23.0725 27.4589 23.2345 27.0929 23.3381C27.0269 23.3291 26.9008 23.227 26.8648 23.077L26.5347 21.2871C26.5287 21.2646 26.5377 21.2361 26.5603 21.2271C26.6235 21.2066 26.684 21.1784 26.7403 21.1431C26.7598 21.1281 26.7853 21.1386 26.8003 21.1551L28.0231 22.4994C28.1431 22.6404 28.1386 22.8025 28.0981 22.852V22.8535ZM25.5085 19.6878C25.5235 19.7028 25.5295 19.7358 25.516 19.7538C25.4785 19.7988 25.465 19.8138 25.435 19.8693C25.4245 19.8903 25.399 19.8933 25.375 19.8843L24.0127 19.3982C24.4328 19.4222 24.8559 19.4327 25.2775 19.4327L25.5085 19.6878ZM26.8588 19.6203C26.8178 19.5826 26.7725 19.5498 26.7238 19.5227C26.6998 19.5107 26.6938 19.4927 26.7028 19.4672L26.7283 19.3982L27.2024 19.3742L26.9173 19.6143C26.9023 19.6293 26.8783 19.6353 26.8603 19.6203H26.8588ZM26.5362 19.1927C26.4162 19.1957 26.3022 19.2032 26.1852 19.2047H26.1792L25.9916 18.1995C26.0516 18.1965 26.1042 18.189 26.1627 18.1845C26.4102 18.1845 26.6518 18.1935 26.8948 18.1995L26.5347 19.1942L26.5362 19.1927ZM25.7441 18.2145L25.9271 19.2047C25.7546 19.2077 25.582 19.2077 25.4065 19.2047L24.5963 18.3195C24.9684 18.2745 25.3495 18.24 25.7441 18.2145ZM25.9466 19.4297C25.9421 19.4357 25.9466 19.4477 25.9376 19.4507C25.8747 19.4732 25.8143 19.5024 25.7576 19.5377C25.7366 19.5527 25.7126 19.5422 25.6976 19.5257L25.6135 19.4327C25.7246 19.4297 25.8386 19.4327 25.9481 19.4282L25.9466 19.4297ZM23.3661 19.1297C23.3706 19.1177 23.3811 19.1042 23.3856 19.0891C23.3803 19.1037 23.3737 19.1177 23.3661 19.1312V19.1297ZM23.2265 19.5828C23.261 19.5272 23.4216 19.4582 23.5746 19.5077L25.2895 20.1199C25.309 20.1259 25.327 20.1499 25.3225 20.1724C25.3127 20.2279 25.3077 20.2841 25.3075 20.3404C25.3075 20.3644 25.288 20.3779 25.267 20.3854L23.4756 20.7185C23.2985 20.744 23.1755 20.6585 23.15 20.5985C23.1425 20.5085 23.1245 20.4244 23.1245 20.3344C23.1245 20.0749 23.1635 19.8243 23.2265 19.5813V19.5828ZM23.2565 21.1941C23.2625 21.1266 23.3661 20.9916 23.5206 20.9571L25.306 20.63C25.3171 20.6275 25.3287 20.6292 25.3387 20.6347C25.3486 20.6403 25.3562 20.6492 25.36 20.66C25.378 20.711 25.384 20.735 25.417 20.789C25.4275 20.81 25.4215 20.831 25.402 20.849L23.9812 21.9923C23.8282 22.1078 23.6661 22.0823 23.6286 22.0373C23.4654 21.7752 23.3401 21.4913 23.2565 21.1941ZM23.6841 22.1183C23.6691 22.0988 23.6541 22.0808 23.6421 22.0583C23.6511 22.0763 23.6691 22.0988 23.6826 22.1183H23.6841ZM24.0187 22.5264C23.9857 22.4754 24.0097 22.2863 24.1357 22.1813L25.555 21.0486C25.57 21.0276 25.5955 21.0231 25.615 21.0411C25.6556 21.0786 25.7201 21.1266 25.7741 21.1566C25.7966 21.1686 25.8041 21.1866 25.7921 21.2136L25.177 22.927C25.1109 23.0995 24.9729 23.167 24.9114 23.155C24.5803 22.9977 24.2789 22.7846 24.0202 22.5249L24.0187 22.5264ZM25.0584 23.2285C25.0393 23.2221 25.0207 23.2141 25.0029 23.2045L25.0569 23.2285H25.0584ZM25.4875 23.3636C25.4305 23.3291 25.3525 23.1745 25.4005 23.0215L26.0216 21.3021C26.0276 21.2796 26.0486 21.2646 26.0711 21.2691C26.1267 21.2796 26.1762 21.2841 26.2407 21.2841C26.2662 21.2841 26.2812 21.3051 26.2857 21.3291L26.6203 23.122C26.6473 23.2946 26.5678 23.4071 26.5077 23.4431C26.4237 23.4491 26.3397 23.4686 26.2527 23.4686C25.9871 23.4686 25.7351 23.4281 25.4905 23.3636H25.4875ZM28.4432 22.5684C28.4582 22.5534 28.4732 22.5384 28.4822 22.5234C28.4672 22.5384 28.4567 22.5534 28.4432 22.5684ZM28.5527 22.4409C28.4972 22.4754 28.3201 22.4634 28.2076 22.3479L26.9938 20.9916C26.9788 20.9766 26.9728 20.9466 26.9893 20.927C27.0201 20.8914 27.0463 20.8521 27.0674 20.81C27.0779 20.7875 27.1034 20.783 27.1244 20.795L28.8648 21.4132C29.0448 21.4837 29.0898 21.6262 29.0748 21.6832C28.9398 21.9587 28.7665 22.2138 28.5602 22.4409H28.5527ZM29.0778 21.6577C29.1033 21.6127 29.1318 21.5407 29.1603 21.4687C29.135 21.5321 29.1075 21.5947 29.0778 21.6562V21.6577ZM29.2773 21.0921C29.2533 21.1491 29.0973 21.2331 28.9368 21.1821L27.2054 20.561C27.1859 20.555 27.1679 20.531 27.1709 20.5085C27.1799 20.4514 27.1859 20.4244 27.1859 20.3629C27.1859 20.3389 27.2069 20.3254 27.2279 20.3179L29.0538 20.0329C29.2338 20.0103 29.3479 20.0959 29.3659 20.1574C29.3689 20.2174 29.3809 20.2774 29.3809 20.3374C29.3809 20.597 29.3419 20.8475 29.2803 21.0906L29.2773 21.0921ZM29.2698 19.5588C29.2698 19.6308 29.1648 19.7598 29.0088 19.7898L27.1934 20.0749C27.1823 20.0767 27.1709 20.0748 27.1611 20.0693C27.1513 20.0639 27.1436 20.0552 27.1394 20.0449C27.1206 19.9824 27.0954 19.9221 27.0644 19.8648C27.0494 19.8453 27.0554 19.8243 27.0719 19.8048L27.612 19.3427C28.1281 19.3037 28.6397 19.2452 29.1468 19.1702C29.1963 19.2977 29.2323 19.4252 29.2668 19.5603L29.2698 19.5588ZM30.2045 18.6195C30.3216 18.6571 30.3621 18.7351 30.2135 18.7756C30.0575 18.8176 29.8685 18.8506 29.6884 18.8881C29.6209 18.7291 29.5309 18.5835 29.4439 18.438C29.7259 18.492 29.984 18.5505 30.203 18.618L30.2045 18.6195ZM27.2384 17.9549L27.3134 17.7404C27.3794 17.5693 27.5235 17.5108 27.5895 17.5213C27.8805 17.6608 28.1491 17.8424 28.3846 18.0614C28.0035 18.012 27.6207 17.977 27.2369 17.9564L27.2384 17.9549ZM27.0013 17.3098C27.0569 17.3503 27.1304 17.5123 27.0839 17.6623L26.9818 17.9474C26.7043 17.9354 26.4297 17.9204 26.1522 17.9234C26.0801 17.9234 26.0126 17.9384 25.9391 17.9384L25.8686 17.5543C25.8416 17.3773 25.9241 17.2633 25.9856 17.2347C26.0756 17.2272 26.1597 17.2077 26.2482 17.2077C26.5092 17.2077 26.7583 17.2483 27.0013 17.3083V17.3098ZM25.396 17.3398C25.4635 17.3473 25.594 17.4508 25.6286 17.6038L25.6736 17.8484C25.5197 17.7066 25.3782 17.552 25.2505 17.3863L25.3975 17.3413L25.396 17.3398ZM25.291 17.9894C24.9999 18.0164 24.7104 18.0494 24.4238 18.0944C24.3638 17.9774 24.3608 17.8694 24.3938 17.8304C24.5363 17.7254 24.6908 17.6323 24.8529 17.5513C24.9819 17.6983 25.1289 17.8454 25.291 17.9894ZM22.1373 18.8326C22.3713 18.7486 22.6564 18.6706 22.9715 18.5955C22.8884 18.7495 22.8157 18.9089 22.7539 19.0726C22.5394 19.0471 22.3188 19.0231 22.1388 18.9886C21.9858 18.9616 22.0233 18.8746 22.1388 18.8326H22.1373ZM77.2067 9.94617C77.1437 9.99868 77.1227 10.0707 77.1737 10.0812C77.2697 10.0992 77.3237 10.1322 77.4348 10.2342C77.4948 10.2642 77.4798 10.1712 77.4648 10.1202C77.4048 9.97618 77.2787 9.88916 77.2097 9.94617H77.2067Z" fill="black"/>
<path d="M74.9562 23.302H72.0066C71.9691 23.5016 72.2016 23.6471 72.3367 23.8016H75.5579L76.458 23.3636C76.6171 22.9735 76.296 22.6284 76.308 22.3133C76.362 21.3741 75.8384 20.4379 75.5624 19.5782C75.7424 19.3877 75.9674 18.9481 76.263 19.0651C76.9532 20.1394 77.0807 21.5107 76.9637 22.8759C76.8931 23.2135 76.3185 23.5211 76.3365 23.8392C76.347 23.9502 77.1017 23.9022 77.4138 23.6366C77.4693 23.4176 77.8744 23.1475 78.0049 23.116C78.1489 22.7034 77.9239 22.7169 77.9599 22.4679C78.0319 22.2953 77.9359 20.4349 77.8068 20.2354C77.7588 20.2054 77.7423 20.2054 77.7393 20.2099C77.5953 19.8408 77.9464 19.2752 78.0874 18.9256L79.1166 18.8326C78.9936 17.9174 78.6665 16.9662 78.4595 16.027C78.5855 15.8079 78.8136 15.6369 79.0221 15.5124C80.1068 14.7967 79.1511 13.643 79.1151 12.7518C78.9306 12.2897 78.2944 11.9296 78.2359 11.4195C78.368 11.5215 78.4685 11.4795 78.497 11.487C78.8076 11.2739 78.7926 10.9664 78.638 10.5808C79.1091 10.0197 79.3972 9.76161 79.4842 9.58307C79.4542 9.11347 78.6995 8.41282 78.2569 8.41282C77.9959 8.55685 77.8218 8.84791 77.3417 9.21999C77.3267 9.2395 76.7656 9.02495 76.5961 9.20499C76.431 9.34002 76.4881 9.77511 76.7911 10.0107C76.7536 10.1262 76.7191 10.1712 76.6561 10.3107C76.6231 10.3797 76.6081 10.4533 76.6516 10.4938C76.7506 10.5838 76.7866 10.7233 76.7161 10.9379C76.6411 11.1659 76.8961 11.334 76.9862 11.367C77.0012 11.3715 77.0312 11.403 77.0612 11.442C77.0942 11.694 76.239 12.1471 76.239 12.3422C76.1715 12.9318 75.8039 12.8733 75.4468 14.8102C75.4918 15.2798 75.4858 15.6954 75.4528 16.066C75.0147 17.2242 74.6577 17.8919 74.3606 18.7291C74.1145 19.4192 75.4948 21.4176 75.5158 22.7799C75.2158 23.23 74.9757 23.1655 74.9562 23.3005V23.302ZM77.1962 21.2271C77.1257 21.0426 77.0672 20.7815 77.1032 20.588C77.2232 20.4724 77.4483 20.5579 77.5623 20.5399C77.7018 21.1851 77.7363 21.2751 77.1977 21.2301L77.1962 21.2271ZM77.2067 11.6895C77.2457 11.6595 77.2817 11.5635 77.3042 11.529C77.7588 11.2379 77.4453 11.448 76.9937 11.2094C76.8466 11.1344 76.8436 10.9934 76.8616 10.7938C76.8886 10.5463 76.7866 10.4983 76.7476 10.4188C76.7326 10.3857 76.8031 10.2642 76.8616 10.1787C76.9667 10.0197 77.0612 9.6896 77.1107 9.60858C77.8639 9.63859 77.6958 9.97166 77.7153 10.0317C77.7753 10.1937 78.0904 10.5418 78.2449 10.6513C78.1999 11.1074 77.8429 10.8388 78.0019 11.2544C77.9599 12.0436 77.0222 11.9446 76.6216 12.5927C76.5811 11.9506 77.1467 11.9521 77.2067 11.688V11.6895ZM76.3515 15.0863C76.5556 15.2708 76.7716 15.5034 76.9277 15.5424C77.0357 15.8124 76.7026 15.8499 76.5826 15.9775C76.302 16.0195 76.197 15.7224 76.0335 15.8574C75.996 15.8874 75.8279 15.8529 75.8309 15.8199C75.9209 15.5799 76.1715 15.2348 76.35 15.0848L76.3515 15.0863ZM74.5736 19.1071C74.4686 18.561 75.1948 17.7118 75.6779 16.0465C75.8759 15.9775 75.9809 16.4321 76.263 16.2565C76.6981 16.267 76.5121 17.3998 76.9171 16.6796C76.9081 16.3615 76.8991 16.0045 77.1512 15.8349C77.4243 15.7719 77.6013 15.9249 77.6193 16.165L77.1992 16.8191C77.9944 16.8491 76.9442 18.1274 77.9944 17.8934C77.9599 18.3735 77.7018 19.7193 77.5173 19.6518C77.3732 18.9061 77.2562 19.2167 77.2562 19.4357C77.2862 19.7253 77.2802 19.9608 77.4513 20.1949C77.3943 20.2549 77.1812 20.2489 77.1212 20.2624C76.5271 19.4147 76.5511 18.2519 76.1685 17.3307C76.104 17.3277 76.023 17.4058 76.026 17.4733C75.9809 18.0284 75.7649 18.8296 75.3088 19.0936C75.0237 19.2617 75.9359 19.1596 75.1888 19.5107C75.4738 19.6998 75.2113 19.9563 74.8977 19.9563C74.7417 19.6232 74.6217 19.3472 74.5751 19.1056L74.5736 19.1071ZM75.3613 20.9465C75.2533 20.8205 75.0868 20.4559 75.0192 20.2984L75.4543 20.1184C75.5894 20.2684 75.7244 20.5474 75.7439 20.7935C75.6464 20.846 75.5113 20.936 75.3613 20.9465ZM61.3558 12.0046C61.2913 11.1194 61.6558 10.3692 61.2433 9.42404C61.2478 9.03395 61.5208 8.73389 61.4473 8.37381L60.7767 8.53585C60.6746 9.28001 60.5516 9.52606 60.6521 10.2267C60.8292 11.0294 60.9192 11.76 61.3543 12.0061L61.3558 12.0046ZM54.4273 14.4801C56.9928 13.76 58.7632 13.1448 60.8892 12.2522C60.004 10.3617 60.199 9.81562 60.274 8.60636C60.274 8.60636 59.1938 8.62136 57.938 8.28829C56.4497 9.2485 54.7123 12.6842 54.4273 14.4786V14.4801ZM63.2312 15.0278C63.0932 14.8927 63.2972 15.1088 63.2312 15.0278V15.0278ZM66.3144 9.29651C65.2341 8.55235 64.3969 6.82097 63.2192 6.938C63.1052 5.66272 62.5485 3.49776 64.3099 1.21426C64.538 1.10924 64.9101 1.06873 65.0541 0.902195C64.3339 0.827178 63.3857 1.27277 62.6986 0.88269C62.6986 0.88269 63.0166 1.43781 63.3857 1.52183C63.1427 1.8519 62.6716 2.08745 62.9581 2.66208C62.37 3.01165 62.5921 3.53526 62.7736 3.81733C62.4795 4.12039 62.301 4.66501 62.6911 4.99658C62.211 5.51119 62.8066 5.94779 62.9461 6.12182C62.7031 6.63644 62.9371 7.03402 62.9371 7.03402C62.9281 7.4046 62.268 7.93422 62.0294 8.10525C61.7444 8.97544 61.8539 10.7263 61.8974 11.8861C63.5028 11.1179 65.0781 10.3857 66.3144 9.29501V9.29651ZM47.8604 40.0562C47.8604 39.141 47.2497 38.0607 46.4111 37.5536C46.206 37.4292 45.9749 37.3542 45.7359 37.3346C45.9399 37.3466 46.216 37.3316 46.4756 37.2236C46.4842 37.2201 46.4933 37.2181 46.5026 37.2176C47.3518 36.8395 48.381 35.7397 48.381 33.8868C48.381 32.517 47.7914 31.4113 46.7906 30.6836C45.8544 30.0055 44.7442 29.8525 43.6355 29.8525H34.9036V32.0729H36.869V43.2579H34.9036V45.4693H41.1044V43.2564H39.1645V38.3293H43.4509C44.9287 38.3473 45.5004 39.3195 45.5304 40.1552L45.6384 45.4663H49.9233V43.2579H47.9204L47.8604 40.0577V40.0562ZM43.9145 36.1853H39.166V32.0744H43.6595C44.1246 32.0744 44.7037 32.0594 45.1553 32.289C45.7074 32.5695 46.225 33.1742 46.225 34.1614C46.225 35.3016 45.1808 36.1868 43.9145 36.1868V36.1853ZM34.1279 50.9605H31.1678V59.883H32.488V56.0211H33.9524C36.0828 56.0211 37.0505 54.9259 37.0505 53.5246C37.0505 52.1113 36.1353 50.959 34.1279 50.959V50.9605ZM34.0739 54.8719H32.491V52.1113H34.1294C35.3297 52.1113 35.6897 52.8164 35.6897 53.4676C35.6897 54.3603 35.0596 54.8719 34.0754 54.8719H34.0739ZM42.1831 50.908L38.2343 59.88H39.6596L40.7398 57.2499H44.6482L45.7659 59.88H47.2212L43.1103 50.908H42.1801H42.1831ZM41.2529 56.0991L42.6272 52.5734L44.1081 56.0991H41.2514H41.2529ZM60.7451 50.9605H62.0654V59.883H60.7451V50.9605ZM67.5551 53.0535C67.5551 52.4233 68.1973 51.9927 69.0915 51.9927C69.7516 51.9927 70.5513 52.2028 71.375 52.923V51.4676C70.7239 51.0629 69.9735 50.8464 69.207 50.842C67.4246 50.842 66.2558 51.7677 66.2558 53.2215C66.2558 55.667 70.4613 55.8771 70.4613 57.7225C70.4613 58.2176 69.9631 58.8447 68.8784 58.8447C67.9212 58.8447 67.027 58.3856 66.3129 57.5545V59.1748C67.126 59.7374 67.9782 60 69.0344 60C70.6023 60 71.756 58.9768 71.756 57.58C71.762 54.7398 67.5551 54.7668 67.5551 53.052V53.0535ZM56.0776 58.1156C55.362 57.0053 54.8414 56.1802 53.9922 55.643C54.9929 55.265 55.5555 54.4908 55.5555 53.4601C55.5555 51.9177 54.3733 50.962 52.4799 50.962H50.1154V59.8845H51.4611V56.0091H52.0253C52.7124 56.0091 53.275 56.2192 54.5113 58.0496L55.6921 59.883H57.2719L56.5772 58.8447C56.4034 58.6067 56.2368 58.3636 56.0776 58.1156ZM52.3268 54.8599H51.4641V52.0588H52.3283C53.6336 52.0588 54.1557 52.5689 54.1707 53.4061C54.1812 54.1562 53.7716 54.8584 52.3283 54.8584L52.3268 54.8599Z" fill="black"/>
</svg>
